<svg id="レイヤー_1" xmlns="http://www.w3.org/2000/svg" xmlns:xlink="http://www.w3.org/1999/xlink" width="687.297" height="299.332" viewBox="0 0 687.297 299.332">
  <defs>
    <linearGradient id="linear-gradient" x1="0.5" y1="1" x2="0.5" gradientUnits="objectBoundingBox">
      <stop offset="0" stop-color="#2e8bad"/>
      <stop offset="0.09" stop-color="#046da8"/>
      <stop offset="1" stop-color="#00a3da"/>
    </linearGradient>
    <clipPath id="clip-path">
      <path id="パス_24" data-name="パス 24" d="M4.173,65.483H198.679V260H4.173Z" transform="translate(-4.173 -65.483)"/>
    </clipPath>
    <clipPath id="clip-path-2">
      <path id="パス_23" data-name="パス 23" d="M101.427,260c54.705-.715,95.881-43.058,97.253-97.263v-.006c-.716-54.7-43.048-95.879-97.253-97.25a97.259,97.259,0,0,0,0,194.519Z" transform="translate(-4.173 -65.483)"/>
    </clipPath>
    <linearGradient id="linear-gradient-2" x1="0.508" y1="-1.489" x2="0.508" y2="-0.489" gradientUnits="objectBoundingBox">
      <stop offset="0" stop-color="#42a3cf" stop-opacity="0.302"/>
      <stop offset="1" stop-color="#80cde8" stop-opacity="0.502"/>
    </linearGradient>
    <clipPath id="clip-path-3">
      <path id="パス_27" data-name="パス 27" d="M82.593,65.483H277.1V260H82.593Z" transform="translate(-82.593 -65.483)"/>
    </clipPath>
    <clipPath id="clip-path-4">
      <path id="パス_26" data-name="パス 26" d="M179.847,260c54.705-.715,95.881-43.058,97.253-97.263v-.006c-.716-54.7-43.048-95.879-97.253-97.25-54.7.715-95.884,43.042-97.254,97.247v.012C83.309,217.442,125.641,258.631,179.847,260Z" transform="translate(-82.593 -65.483)"/>
    </clipPath>
    <linearGradient id="linear-gradient-3" x1="0.492" y1="-1.489" x2="0.492" y2="-0.489" xlink:href="#linear-gradient-2"/>
    <clipPath id="clip-path-5">
      <path id="パス_29" data-name="パス 29" d="M152.5,301.45c32.512-9.917,56.932-36.443,65.777-68.988h0c-20.027,18.19-44.042,26.253-70.905,25.535a96.846,96.846,0,0,1-60.621-25.425A97.455,97.455,0,0,0,152.5,301.45Z" transform="translate(-86.756 -232.462)"/>
    </clipPath>
    <linearGradient id="linear-gradient-4" x1="0.5" y1="-5.895" x2="0.5" y2="-4.895" gradientUnits="objectBoundingBox">
      <stop offset="0" stop-color="#4282a0" stop-opacity="0.302"/>
      <stop offset="1" stop-color="#93c1d1"/>
    </linearGradient>
    <linearGradient id="linear-gradient-5" x1="0.5" y1="1" x2="0.5" gradientUnits="objectBoundingBox">
      <stop offset="0" stop-color="#1a2534" stop-opacity="0.4"/>
      <stop offset="1" stop-color="#1a2534" stop-opacity="0"/>
    </linearGradient>
    <radialGradient id="radial-gradient" cx="0.843" cy="0.29" r="0.147" gradientTransform="translate(0)" gradientUnits="objectBoundingBox">
      <stop offset="0" stop-color="#2c365e"/>
      <stop offset="0" stop-color="#2c365e" stop-opacity="0.361"/>
      <stop offset="1" stop-color="#2c365e" stop-opacity="0"/>
    </radialGradient>
    <clipPath id="clip-path-6">
      <path id="パス_33" data-name="パス 33" d="M43.329,0H237.835V194.524H43.329Z" transform="translate(-43.329)"/>
    </clipPath>
    <clipPath id="clip-path-7">
      <path id="パス_35" data-name="パス 35" d="M140.5,194.524c52.9-1.455,93.088-39.312,97.2-92.179l.135-4.989v-.025c-1.453-52.891-39.3-93.083-92.16-97.2L140.689,0h-.029C87.771,1.456,47.577,39.305,43.465,92.165a97.261,97.261,0,0,0,92.029,102.223Z" transform="translate(-43.329)"/>
    </clipPath>
    <radialGradient id="radial-gradient-2" cx="-0.034" cy="0.229" r="0.367" gradientTransform="matrix(0.868, 0, 0, -1, -0.005, -0.457)" gradientUnits="objectBoundingBox">
      <stop offset="0" stop-color="#fffffe"/>
      <stop offset="1" stop-color="#fff" stop-opacity="0"/>
    </radialGradient>
  </defs>
  <g id="グループ_21" data-name="グループ 21">
    <path id="パス_20" data-name="パス 20" d="M223.91,388.626c0,7.392-33.648,13.383-75.154,13.383S73.6,396.018,73.6,388.626s33.648-13.383,75.153-13.383,75.154,5.992,75.154,13.383" transform="translate(-20.14 -102.678)" fill="#b0b1af"/>
    <path id="パス_21" data-name="パス 21" d="M128.616.2A128.616,128.616,0,1,1,0,128.814,128.616,128.616,0,0,1,128.616.2Zm.15,51.662A97.379,97.379,0,0,0,63.013,169a97.225,97.225,0,0,0,131.528-.091A97.376,97.376,0,0,0,128.766,51.86Z" transform="translate(0 -0.054)" fill="url(#linear-gradient)"/>
    <g id="グループ_17" data-name="グループ 17" transform="translate(3.031 47.565)">
      <g id="グループ_13" data-name="グループ 13" opacity="0.9" clip-path="url(#clip-path)">
        <g id="グループ_12" data-name="グループ 12" opacity="0.8" clip-path="url(#clip-path-2)">
          <path id="パス_22" data-name="パス 22" d="M101.427,65.481a100.773,100.773,0,0,1,24.306,3.062c1.355.32,2.66.827,3.99,1.241-41.342,13.063-67.7,49.951-68.587,92.951a97.42,97.42,0,0,0,3.02,24.132,96.889,96.889,0,0,0,65.715,25.571c24.893-.015,47.245-9.337,65.8-25.651-12.44,43.892-48.6,72.059-94.243,73.214a97.259,97.259,0,0,1,0-194.519Z" transform="translate(-4.173 -65.481)" fill="url(#linear-gradient-2)"/>
        </g>
      </g>
      <g id="グループ_15" data-name="グループ 15" transform="translate(56.962)" opacity="0.9" clip-path="url(#clip-path-3)">
        <g id="グループ_14" data-name="グループ 14" opacity="0.8" clip-path="url(#clip-path-4)">
          <path id="パス_25" data-name="パス 25" d="M181.059,65.483a97.259,97.259,0,0,1,0,194.519c-36.767-1.008-71.268-21.436-87.435-54.9-3.422-7.081-4.262-10.535-6.6-18.063,18.263,16.712,40.968,24.811,65.517,25.4a96.88,96.88,0,0,0,65.813-25.662,97.433,97.433,0,0,0,3-24.041c-.022-42.605-28.233-79.713-68.365-92.879C162.012,66.751,171.58,65.833,181.059,65.483Z" transform="translate(-83.805 -65.483)" fill="url(#linear-gradient-3)"/>
        </g>
      </g>
      <g id="グループ_16" data-name="グループ 16" transform="translate(59.986 121.288)" clip-path="url(#clip-path-5)">
        <path id="パス_28" data-name="パス 28" d="M152.5,301.45a97.452,97.452,0,0,0,65.777-68.988A96.938,96.938,0,0,1,147.377,258c-22.735-1.076-43.667-10.508-60.621-25.425h0C95.134,265.473,120.462,291.073,152.5,301.45Z" transform="translate(-86.756 -232.462)" fill="url(#linear-gradient-4)"/>
      </g>
    </g>
    <path id="パス_30" data-name="パス 30" d="M128.616.2A128.616,128.616,0,1,1,0,128.814,128.616,128.616,0,0,1,128.616.2Zm.15,51.662A97.379,97.379,0,0,0,63.013,169a97.225,97.225,0,0,0,131.528-.091A97.376,97.376,0,0,0,128.766,51.86Z" transform="translate(0 -0.054)" fill="url(#linear-gradient-5)"/>
    <path id="パス_31" data-name="パス 31" d="M128.616.2A128.616,128.616,0,1,1,0,128.814,128.616,128.616,0,0,1,128.616.2Zm.15,51.662A97.379,97.379,0,0,0,63.013,169a97.225,97.225,0,0,0,131.528-.091A97.376,97.376,0,0,0,128.766,51.86Z" transform="translate(0 -0.054)" fill="url(#radial-gradient)"/>
    <g id="グループ_20" data-name="グループ 20" transform="translate(31.473)">
      <g id="グループ_18" data-name="グループ 18" opacity="0.3" clip-path="url(#clip-path-6)">
        <path id="パス_32" data-name="パス 32" d="M140.7,0l5,.136a97.244,97.244,0,0,1,92.026,102.21c-1.492,25.174-12.439,49.387-31.261,66.339a99.435,99.435,0,0,0,2.956-23.866,97.29,97.29,0,0,0-68.772-93.012,97.291,97.291,0,0,0-68.773,93.012,99.329,99.329,0,0,0,2.976,23.951C52.8,148.847,42.7,121.534,43.5,92.165c2.5-43.744,34.652-81.555,77.777-90.245C129.818.2,132,.423,140.7,0Z" transform="translate(-43.363 0)" fill="#fffffe"/>
      </g>
      <g id="グループ_19" data-name="グループ 19" transform="translate(0)" clip-path="url(#clip-path-7)">
        <path id="パス_34" data-name="パス 34" d="M140.72,0l4.989.135c52.864,4.113,90.707,44.3,92.16,97.2v.025l-.135,4.989a100.578,100.578,0,0,1-31.2,66.069,99.072,99.072,0,0,0,2.891-23.6,97.29,97.29,0,0,0-68.772-93.012,97.291,97.291,0,0,0-68.773,93.012,99.329,99.329,0,0,0,2.976,23.951C52.805,148.847,42.7,121.534,43.5,92.165,47.612,39.3,87.807,1.455,140.7,0Z" transform="translate(-43.364)" fill="url(#radial-gradient-2)"/>
      </g>
    </g>
  </g>
  <g id="グループ_22" data-name="グループ 22" transform="translate(300.278 71.128)">
    <path id="パス_36" data-name="パス 36" d="M603.847,117.392c-.263,4.127-.676,7.659-.683,11.19q-.082,39.72-.034,79.439c0,4.308-4.233,6.83-7.806,4.462a5.207,5.207,0,0,1-2-3.728q-.161-51.509.051-103.016a6.76,6.76,0,0,1,3.137-5.05c6.717-3.168,13.869-4.244,20.395.179,2.432,1.648,4.125,4.794,5.454,7.591,5,10.524,9.707,21.185,14.525,31.8q10.84,23.873,21.691,47.741a14.857,14.857,0,0,0,1.189,1.752c.669-1.276,1.222-2.292,1.739-3.325,12.666-25.284,25.443-50.515,37.9-75.9,2.6-5.3,4.78-10.667,11.246-11.828,5.165-.928,10.579-1.652,14.885,2.571a5.755,5.755,0,0,1,1.618,3.683q.129,51.871.054,103.742c0,4.679-6.481,8.69-11.724,7.376-7.4-1.853-9.045-4-9.045-11.8q0-41.17,0-82.341v-3.816l-.782-.2c-2.735,5.729-5.427,11.479-8.213,17.182Q681.9,166.9,666.277,198.677a87.658,87.658,0,0,1-5.146,8.959c-2.811,4.328-9.319,5.364-13.11,2.178a7.319,7.319,0,0,1-1.841-2.458q-13.233-28.482-26.4-56.994c-4.911-10.575-9.9-21.113-14.867-31.662a10.4,10.4,0,0,0-1.066-1.309" transform="translate(-462.605 -97.922)" fill="#373736"/>
    <path id="パス_37" data-name="パス 37" d="M808.292,104.243h4.427q44.622,0,89.243.05c2.15.006,5.385-1.477,5.346,3.083-.036,4.09-2.583,3.882-5.368,3.879q-34.1-.038-68.2-.015h-4.586v40.168h4.069q34.282,0,68.564,0c5.926,0,7.229,2.138,4.431,7.656H829.193v46.766h72.84c.968,0,2.208-.36,2.846.1a10.291,10.291,0,0,1,3.574,3.845c.231.55-1.788,2.286-3.022,3.129a5.728,5.728,0,0,1-3.071.62q-45.709.045-91.419.019c-.819,0-1.639-.079-2.648-.131Z" transform="translate(-521.451 -99.604)" fill="#373736"/>
    <path id="パス_38" data-name="パス 38" d="M434.194,148.818c0,11.724.325,23.46-.088,35.169-.449,12.735,7.376,19.173,17.176,21.864a68.846,68.846,0,0,0,42.243-1.328c8.766-3.149,15.24-8.729,17.474-18.225a17.276,17.276,0,0,0,.355-3.914q.031-35.354.023-70.707c0-4.976,1.322-6.486,5.49-6.526,3.834-.036,5.121,1.229,5.122,5.162.011,21.031.06,42.062-.037,63.092a78.551,78.551,0,0,1-.993,13.95c-1.5,8.076-6.821,13.42-13.9,17.137a70.734,70.734,0,0,1-33.219,8.471c-8.57,0-17.2.108-25.694-.822-10.086-1.106-19.922-3.7-27.829-10.719-4.953-4.4-6.853-10.269-6.874-16.693-.077-24.294-.031-48.588-.031-72.883,0-5.47-.061-5.842,5.51-6.773,3.784-.632,7.792-.254,11.664.084,2.638.23,3.662,2.146,3.646,4.862-.08,12.932-.036,25.865-.036,38.8" transform="translate(-413.395 -99.786)" fill="#373736"/>
  </g>
</svg>
