<?xml version="1.0" encoding="UTF-8"?>
<!DOCTYPE svg PUBLIC "-//W3C//DTD SVG 1.1//EN" "http://www.w3.org/Graphics/SVG/1.1/DTD/svg11.dtd">
<svg version="1.1" xmlns="http://www.w3.org/2000/svg" xmlns:xlink="http://www.w3.org/1999/xlink" x="0" y="0" width="946.209" height="412.093" viewBox="0, 0, 946.209, 412.093">
  <defs>
    <linearGradient id="Gradient_1" gradientUnits="userSpaceOnUse" x1="177.067" y1="354.333" x2="177.067" y2="0.198" gradientTransform="matrix(1, 0, 0, 1, 0, 0)">
      <stop offset="0" stop-color="#2E8BAD"/>
      <stop offset="0.09" stop-color="#046DA8"/>
      <stop offset="1" stop-color="#00A3DA"/>
    </linearGradient>
    <linearGradient id="Gradient_2" gradientUnits="userSpaceOnUse" x1="138.062" y1="-333.279" x2="138.062" y2="-65.483" gradientTransform="matrix(1, 0, 0, -1, 0, 0)">
      <stop offset="0" stop-color="#42A3CF" stop-opacity="0.3"/>
      <stop offset="1" stop-color="#80CDE8" stop-opacity="0.5"/>
    </linearGradient>
    <clipPath id="Clip_1">
      <path d="M138.063,333.279 C213.376,332.294 270.064,274 271.952,199.376 L271.952,199.368 C270.966,124.057 212.688,67.371 138.063,65.483 C64.116,65.483 4.173,125.425 4.173,199.372 C4.173,273.319 64.116,333.279 138.063,333.279 z"/>
    </clipPath>
    <clipPath id="Clip_2">
      <path d="M4.173,65.483 L271.952,65.483 L271.952,333.279 L4.173,333.279 z"/>
    </clipPath>
    <linearGradient id="Gradient_3" gradientUnits="userSpaceOnUse" x1="216.483" y1="-333.279" x2="216.483" y2="-65.483" gradientTransform="matrix(1, 0, 0, -1, 0, 0)">
      <stop offset="0" stop-color="#42A3CF" stop-opacity="0.3"/>
      <stop offset="1" stop-color="#80CDE8" stop-opacity="0.5"/>
    </linearGradient>
    <clipPath id="Clip_3">
      <path d="M216.484,333.279 C291.797,332.294 348.485,274 350.373,199.376 L350.373,199.368 C349.387,124.057 291.109,67.371 216.484,65.483 C141.179,66.468 84.48,124.739 82.593,199.364 L82.593,199.38 C83.579,274.687 141.858,331.392 216.484,333.279 z"/>
    </clipPath>
    <clipPath id="Clip_4">
      <path d="M82.593,65.483 L350.373,65.483 L350.373,333.279 L82.593,333.279 z"/>
    </clipPath>
    <linearGradient id="Gradient_4" gradientUnits="userSpaceOnUse" x1="177.293" y1="-327.438" x2="177.293" y2="-232.462" gradientTransform="matrix(1, 0, 0, -1, 0, 0)">
      <stop offset="0" stop-color="#4282A0" stop-opacity="0.3"/>
      <stop offset="1" stop-color="#93C1D1"/>
    </linearGradient>
    <clipPath id="Clip_5">
      <path d="M177.273,327.438 C222.032,313.785 255.652,277.266 267.829,232.462 L267.829,232.462 C240.258,257.504 207.196,268.605 170.213,267.616 C137.902,265.922 108.869,252.906 86.756,232.613 C98.311,277.842 132.89,313.862 177.273,327.438 z"/>
    </clipPath>
    <linearGradient id="Gradient_5" gradientUnits="userSpaceOnUse" x1="177.067" y1="354.333" x2="177.067" y2="0.198" gradientTransform="matrix(1, 0, 0, 1, 0, 0)">
      <stop offset="0" stop-color="#1A2534" stop-opacity="0.4"/>
      <stop offset="1" stop-color="#1A2534" stop-opacity="0"/>
    </linearGradient>
    <radialGradient id="Gradient_6" gradientUnits="userSpaceOnUse" cx="298.566" cy="102.765" r="52.035" gradientTransform="matrix(1, 0, 0, 1, 0, 0)">
      <stop offset="0" stop-color="#2C365E"/>
      <stop offset="0" stop-color="#2C365E" stop-opacity="0.36"/>
      <stop offset="1" stop-color="#2C365E" stop-opacity="0"/>
    </radialGradient>
    <clipPath id="Clip_6">
      <path d="M43.329,-0 L311.107,-0 L311.107,267.803 L43.329,267.803 z"/>
    </clipPath>
    <radialGradient id="Gradient_7" gradientUnits="userSpaceOnUse" cx="34.243" cy="-88.569" r="85.329" gradientTransform="matrix(1, 0, 0, -1, 0, 0)">
      <stop offset="0" stop-color="#FFFFFE"/>
      <stop offset="1" stop-color="#000000" stop-opacity="0.05"/>
    </radialGradient>
    <clipPath id="Clip_7">
      <path d="M177.103,267.803 C249.929,265.8 305.258,213.682 310.921,140.899 L311.107,134.031 L311.107,133.997 C309.106,61.181 257.007,5.848 184.229,0.186 L177.365,-0 L177.325,-0 C104.513,2.004 49.177,54.112 43.516,126.885 C39.645,200.731 96.367,263.746 170.213,267.616 L177.103,267.803 z"/>
    </clipPath>
  </defs>
  <g id="レイヤー_1">
    <g>
      <path d="M280.532,393.668 C280.532,403.844 234.209,412.093 177.067,412.093 C119.926,412.093 73.603,403.844 73.603,393.668 C73.603,383.492 119.926,375.243 177.067,375.243 C234.209,375.243 280.532,383.492 280.532,393.668" fill="#B0B1AF"/>
      <path d="M-0,177.265 C-0,275.057 79.275,354.333 177.067,354.333 L177.067,354.333 C274.859,354.333 354.134,275.057 354.134,177.265 L354.134,177.265 C354.134,79.474 274.859,0.198 177.067,0.198 L177.067,0.198 C79.275,0.198 -0,79.474 -0,177.265 z" fill="url(#Gradient_1)"/>
      <g>
        <g clip-path="url(#Clip_2)" opacity="0.9">
          <g clip-path="url(#Clip_1)" opacity="0.8">
            <path d="M138.063,333.279 C212.01,333.279 271.952,273.319 271.952,199.372 C271.952,125.425 212.01,65.483 138.063,65.483 C64.116,65.483 4.173,125.425 4.173,199.372 C4.173,273.319 64.116,333.279 138.063,333.279 z" fill="url(#Gradient_2)"/>
          </g>
        </g>
        <g clip-path="url(#Clip_4)" opacity="0.9">
          <g clip-path="url(#Clip_3)" opacity="0.8">
            <path d="M216.484,333.279 C290.431,333.279 350.373,273.319 350.373,199.372 C350.373,125.425 290.431,65.483 216.484,65.483 C141.182,66.468 84.48,124.737 82.593,199.36 L82.593,199.384 C83.58,274.689 141.861,331.392 216.484,333.279 z" fill="url(#Gradient_3)"/>
          </g>
        </g>
        <g clip-path="url(#Clip_5)">
          <path d="M177.273,327.438 C221.706,313.846 256.314,277.762 267.829,232.462 C242.265,255.967 207.638,269.577 170.213,267.616 C138.914,266.135 110.096,253.15 86.756,232.613 L86.756,232.613 C98.29,277.909 133.16,313.152 177.273,327.438 z" fill="url(#Gradient_4)"/>
        </g>
      </g>
      <path d="M-0,177.265 C-0,275.057 79.275,354.333 177.067,354.333 L177.067,354.333 C274.859,354.333 354.134,275.057 354.134,177.265 L354.134,177.265 C354.134,79.474 274.859,0.198 177.067,0.198 L177.067,0.198 C79.275,0.198 -0,79.474 -0,177.265 z" fill="url(#Gradient_5)"/>
      <path d="M-0,177.265 C-0,275.057 79.275,354.333 177.067,354.333 L177.067,354.333 C274.859,354.333 354.134,275.057 354.134,177.265 L354.134,177.265 C354.134,79.474 274.859,0.198 177.067,0.198 L177.067,0.198 C79.275,0.198 -0,79.474 -0,177.265 z" fill="url(#Gradient_6)"/>
      <g>
        <path d="M177.273,71.322 C122.46,88.085 82.593,139.069 82.593,199.372 C82.593,210.84 84.037,221.971 86.75,232.595 C110.577,254.453 142.339,267.799 177.221,267.799 C212.173,267.799 243.986,254.402 267.826,232.47 C270.518,221.884 271.952,210.796 271.952,199.372 C271.952,139.069 232.087,88.085 177.273,71.322" fill="#FFFFFE"/>
        <g clip-path="url(#Clip_6)" opacity="0.3">
          <path d="M310.921,140.899 C307.05,214.745 244.068,271.486 170.213,267.616 C96.367,263.746 39.645,200.731 43.515,126.885 C47.385,53.039 110.382,-3.684 184.228,0.186 C258.083,4.057 314.79,67.053 310.921,140.899" fill="#FFFFFE"/>
        </g>
        <g clip-path="url(#Clip_7)">
          <path d="M177.103,267.803 C249.929,265.8 305.258,213.682 310.921,140.899 L311.107,134.031 L311.107,133.997 C309.106,61.181 257.007,5.848 184.229,0.186 L177.361,0 L177.327,0 C104.515,2.003 49.177,54.11 43.516,126.885 C39.645,200.731 96.367,263.746 170.213,267.616 L177.103,267.803 z" fill="url(#Gradient_7)"/>
        </g>
      </g>
    </g>
    <g display="none">
      <path d="M352.231,118.074 C351.623,127.214 350.667,135.034 350.65,142.855 C350.524,201.492 350.589,260.129 350.571,318.767 C350.568,328.307 340.781,333.891 332.518,328.648 C330.076,327.099 327.896,323.213 327.886,320.391 C327.637,244.35 327.58,168.309 328.003,92.271 C328.023,88.422 331.692,82.699 335.258,81.089 C350.793,74.073 367.332,71.691 382.423,81.485 C388.047,85.134 391.962,92.101 395.035,98.293 C406.593,121.599 417.483,145.206 428.625,168.702 C445.337,203.945 462.043,239.192 478.787,274.421 C479.309,275.521 480.213,276.456 481.536,278.3 C483.084,275.474 484.362,273.226 485.558,270.937 C514.848,214.947 544.395,159.075 573.199,102.855 C579.216,91.113 584.253,79.234 599.207,76.662 C611.151,74.607 623.671,73.003 633.628,82.355 C635.711,84.309 637.363,87.75 637.371,90.51 C637.569,167.087 637.559,243.662 637.495,320.239 C637.487,330.6 622.507,339.481 610.382,336.573 C593.28,332.469 589.466,327.708 589.466,310.444 C589.464,249.666 589.466,188.886 589.466,128.107 L589.466,119.657 C588.862,119.512 588.261,119.369 587.658,119.225 C581.334,131.911 575.108,144.643 568.665,157.273 C544.704,204.236 520.729,251.189 496.606,298.075 C493.092,304.905 489.038,311.527 484.706,317.914 C478.205,327.498 463.155,329.793 454.388,322.736 C452.617,321.31 451.111,319.315 450.13,317.293 C429.729,275.246 409.467,233.136 389.075,191.085 C377.718,167.667 366.179,144.333 354.695,120.973 C354.384,120.341 353.758,119.85 352.231,118.074" fill="#373736"/>
      <path d="M688.939,85.234 L699.175,85.234 C767.969,85.234 836.762,85.181 905.556,85.345 C910.528,85.358 918.008,82.073 917.919,92.173 C917.837,101.23 911.946,100.769 905.505,100.762 C852.932,100.706 800.358,100.73 747.784,100.73 L737.18,100.73 L737.18,189.679 L746.59,189.679 C799.443,189.679 852.297,189.678 905.149,189.681 C918.853,189.683 921.867,194.416 915.396,206.634 L737.274,206.634 L737.274,310.194 L747.16,310.194 C800.014,310.194 852.866,310.194 905.72,310.197 C907.958,310.197 910.827,309.401 912.302,310.427 C915.587,312.712 919.075,315.553 920.566,318.94 C921.101,320.158 916.431,324.002 913.578,325.868 C911.734,327.076 908.88,327.24 906.476,327.242 C836.006,327.308 765.535,327.297 695.063,327.284 C693.168,327.282 691.272,327.108 688.939,326.994 z" fill="#373736"/>
      <path d="M73.698,183.538 C73.698,209.501 74.451,235.487 73.495,261.418 C72.457,289.619 90.552,303.875 113.217,309.833 C145.781,318.395 178.757,317.953 210.906,306.893 C231.177,299.92 246.149,287.562 251.316,266.536 C252.003,263.737 252.136,260.762 252.138,257.868 C252.185,205.676 252.151,153.484 252.191,101.293 C252.2,90.275 255.249,86.929 264.887,86.843 C273.753,86.762 276.73,89.564 276.733,98.274 C276.758,144.844 276.872,191.417 276.647,237.987 C276.597,248.301 276.313,258.788 274.351,268.878 C270.874,286.763 258.578,298.595 242.195,306.827 C218.151,318.91 192.553,325.585 165.374,325.585 C145.556,325.585 125.6,325.825 105.955,323.764 C82.631,321.316 59.884,315.582 41.6,300.028 C30.145,290.287 25.753,277.289 25.704,263.063 C25.526,209.266 25.632,155.469 25.633,101.67 C25.633,89.558 25.492,88.732 38.376,86.672 C47.128,85.273 56.395,86.111 65.35,86.857 C71.451,87.365 73.819,91.608 73.781,97.623 C73.596,126.26 73.698,154.899 73.698,183.538" fill="#373736"/>
    </g>
  </g>
</svg>
